<svg width="30" height="30" viewBox="0 0 30 30" fill="none" xmlns="http://www.w3.org/2000/svg">
<path d="M29.865 12.9998C29.7961 12.487 29.325 12.1275 28.8108 12.1959C28.2975 12.2648 27.938 12.7369 28.0069 13.2502C28.043 13.5202 28.0692 13.7916 28.0889 14.0625H26.2078C26.0091 11.6639 25.0556 9.47766 23.5847 7.74094L24.9098 6.41578C25.0223 6.54516 25.1348 6.67406 25.2417 6.80719C25.4269 7.03828 25.6992 7.15875 25.9739 7.15875C26.1792 7.15875 26.3864 7.09125 26.5594 6.95297C26.9634 6.62953 27.0286 6.03938 26.7047 5.63531C26.0138 4.77328 25.2267 3.98578 24.3647 3.29531C23.9606 2.97094 23.3705 3.03609 23.047 3.44063C22.7231 3.84469 22.7883 4.43484 23.1923 4.75828C23.3259 4.86516 23.4548 4.97813 23.5838 5.09016L22.2586 6.41531C20.5223 4.94437 18.3361 3.99094 15.9375 3.79219V1.91109C16.2084 1.93078 16.4794 1.95656 16.7498 1.99312C16.7925 1.99875 16.8347 2.00156 16.8764 2.00156C17.3386 2.00156 17.7408 1.65984 17.8041 1.18922C17.873 0.675937 17.5134 0.203906 17.0002 0.135C16.3373 0.0454687 15.6722 0.0009375 15.007 0.00046875C15.0047 0.00046875 15.0023 0 15 0C14.9977 0 14.9953 0.00046875 14.993 0.00046875C14.3278 0.00046875 13.6622 0.0454687 12.9998 0.135C12.4866 0.203906 12.127 0.675937 12.1959 1.18922C12.2653 1.7025 12.7369 2.06344 13.2502 1.99312C13.5206 1.95656 13.7916 1.93078 14.0625 1.91109V3.79219C11.6639 3.99094 9.47766 4.94437 7.74094 6.41531L6.41578 5.09016C6.54516 4.97766 6.67406 4.86516 6.80719 4.75828C7.21125 4.43484 7.27641 3.84469 6.9525 3.44063C6.62906 3.03656 6.03844 2.97094 5.63484 3.29531C4.77281 3.98625 3.98531 4.77328 3.29484 5.63531C2.97094 6.03938 3.03609 6.62953 3.44016 6.95297C3.61313 7.09172 3.82031 7.15875 4.02563 7.15875C4.30031 7.15875 4.57266 7.03875 4.75781 6.80719C4.86469 6.67359 4.97766 6.54469 5.08969 6.41578L6.41484 7.74094C4.94438 9.47766 3.99094 11.6639 3.79219 14.0625H1.91109C1.93078 13.7916 1.95703 13.5202 1.99312 13.2502C2.06203 12.7369 1.7025 12.2648 1.18922 12.1959C0.673594 12.127 0.204375 12.487 0.135 12.9998C0.0454687 13.6645 0 14.3377 0 15C0 15.6623 0.0454687 16.3355 0.135 17.0002C0.198281 17.4708 0.600937 17.8125 1.06312 17.8125C1.10484 17.8125 1.14703 17.8097 1.18969 17.8041C1.70297 17.7352 2.0625 17.2631 1.99359 16.7498C1.95703 16.4798 1.93078 16.2084 1.91109 15.9375H3.79219C3.99094 18.3361 4.94437 20.5223 6.41531 22.2591L5.09016 23.5842C4.97766 23.4548 4.86516 23.3259 4.75828 23.1928C4.43484 22.7888 3.84469 22.7236 3.44063 23.0475C3.03656 23.3709 2.97141 23.9611 3.29531 24.3652C3.98625 25.2272 4.77328 26.0147 5.63531 26.7052C5.80828 26.8439 6.01547 26.9109 6.22078 26.9109C6.49547 26.9109 6.76781 26.7909 6.95297 26.5594C7.27688 26.1553 7.21172 25.5652 6.80766 25.2417C6.67406 25.1348 6.54516 25.0219 6.41625 24.9098L7.74141 23.5847C9.47812 25.0556 11.6648 26.0086 14.063 26.2078V28.0889C13.792 28.0692 13.5211 28.0434 13.2506 28.0069C12.7369 27.9375 12.2653 28.298 12.1964 28.8108C12.1275 29.3241 12.487 29.7961 13.0003 29.865C13.6645 29.9545 14.3377 30 15 30C15.6623 30 16.3355 29.9545 17.0002 29.865C17.5134 29.7961 17.873 29.3241 17.8041 28.8108C17.7352 28.298 17.265 27.938 16.7498 28.0069C16.4794 28.0434 16.2084 28.0692 15.9375 28.0889V26.2078C18.3361 26.0091 20.5223 25.0556 22.2591 23.5847L23.5842 24.9098C23.4548 25.0223 23.3259 25.1348 23.1928 25.2417C22.7888 25.5652 22.7236 26.1553 23.0475 26.5594C23.2327 26.7905 23.505 26.9109 23.7797 26.9109C23.985 26.9109 24.1922 26.8434 24.3652 26.7052C25.2272 26.0142 26.0147 25.2272 26.7052 24.3652C27.0291 23.9611 26.9639 23.3709 26.5598 23.0475C26.1558 22.7231 25.5652 22.7888 25.2422 23.1928C25.1353 23.3264 25.0223 23.4553 24.9103 23.5842L23.5852 22.2591C25.0561 20.5223 26.0091 18.3356 26.2083 15.9375H28.0894C28.0697 16.2084 28.0434 16.4798 28.0073 16.7498C27.9384 17.2631 28.298 17.7352 28.8113 17.8041C28.8534 17.8097 28.8956 17.8125 28.9369 17.8125C29.3991 17.8125 29.8012 17.4708 29.8645 17.0002C29.9545 16.3355 30 15.6623 30 15C30 14.3377 29.9545 13.6645 29.865 12.9998ZM22.2548 20.9287L20.9175 19.5914C21.1256 19.3237 21.3173 19.042 21.488 18.7472C21.7477 18.2991 21.5948 17.7258 21.1467 17.4661C20.6991 17.2073 20.1248 17.3592 19.8656 17.8073C19.3711 18.66 18.6595 19.3716 17.8073 19.8656C17.3592 20.1253 17.2069 20.6991 17.4661 21.1467C17.64 21.4467 17.9545 21.6145 18.278 21.6145C18.4373 21.6145 18.5991 21.5737 18.7472 21.488C19.042 21.3173 19.3233 21.1256 19.5914 20.9175L20.9287 22.2548C19.312 23.5786 17.2477 24.375 15 24.375C12.7523 24.375 10.688 23.5786 9.07125 22.2548L10.4086 20.9175C10.6767 21.1256 10.9584 21.3173 11.2533 21.4884C11.4014 21.5742 11.5631 21.615 11.7225 21.615C12.0459 21.615 12.3605 21.4477 12.5344 21.1472C12.7941 20.6991 12.6412 20.1258 12.1931 19.8661C11.3405 19.372 10.6284 18.66 10.1344 17.8073C9.87469 17.3592 9.30094 17.2073 8.85328 17.4661C8.40516 17.7258 8.25281 18.2995 8.51203 18.7472C8.68313 19.042 8.87437 19.3233 9.0825 19.5914L7.74516 20.9287C6.42141 19.312 5.625 17.2477 5.625 15C5.625 12.7523 6.42141 10.688 7.74516 9.07125L9.0825 10.4086C8.87437 10.6762 8.68313 10.958 8.51203 11.2528C8.25234 11.7009 8.40516 12.2742 8.85328 12.5339C9.00094 12.6197 9.16313 12.6605 9.3225 12.6605C9.64594 12.6605 9.96047 12.4931 10.1344 12.1927C10.6284 11.34 11.3405 10.6284 12.1927 10.1344C12.6408 9.87469 12.7931 9.30141 12.5339 8.85328C12.2742 8.40516 11.7009 8.25234 11.2528 8.51203C10.958 8.68313 10.6767 8.87391 10.4086 9.0825L9.07125 7.74516C10.688 6.42141 12.7523 5.625 15 5.625C17.2477 5.625 19.312 6.42141 20.9287 7.74516L19.5914 9.0825C19.3237 8.87484 19.0425 8.68312 18.7481 8.5125C18.2995 8.25234 17.7263 8.40516 17.467 8.85328C17.2073 9.30141 17.3597 9.87516 17.8078 10.1344C18.6605 10.6289 19.372 11.3405 19.8661 12.1927C20.04 12.4927 20.3545 12.6605 20.678 12.6605C20.8373 12.6605 20.9991 12.6197 21.1472 12.5339C21.5953 12.2742 21.7477 11.7005 21.4884 11.2528C21.3173 10.958 21.1261 10.6762 20.918 10.4086L22.2553 9.07125C23.5786 10.688 24.375 12.7523 24.375 15C24.375 17.2477 23.5786 19.312 22.2548 20.9287Z" fill="#BCBCBC"/>
</svg>
