<?xml version="1.0" ?><svg id="Layer_1" style="enable-background:new 0 0 1024 1024;" version="1.1" viewBox="0 0 1024 1024" xml:space="preserve" xmlns="http://www.w3.org/2000/svg" xmlns:xlink="http://www.w3.org/1999/xlink"><g id="XMLID_323_"><path d="M911.9,773.1H112.1v-134h728.9c39.1,0,71,31.8,71,71V773.1z M152.1,733.1h719.9v-23c0-17.1-13.9-31-31-31   H152.1V733.1z" id="XMLID_10_"/><path d="M274.6,679.1H112.1V573.4h104.5c32,0,58.1,26.1,58.1,58.1V679.1z M152.1,639.1h82.5v-7.7   c0-10-8.1-18.1-18.1-18.1h-64.5V639.1z" id="XMLID_7_"/><path d="M591.5,503.4h-87.7c-13.2,0-23.9-10.7-23.9-23.9v-94.6h-94.6c-13.2,0-23.9-10.7-23.9-23.9v-87.7   c0-13.2,10.7-23.9,23.9-23.9h94.6v-94.6c0-13.2,10.7-23.9,23.9-23.9h87.7c13.2,0,23.9,10.7,23.9,23.9v94.6h94.6   c13.2,0,23.9,10.7,23.9,23.9V361c0,13.2-10.7,23.9-23.9,23.9h-94.6v94.6C615.4,492.6,604.6,503.4,591.5,503.4z M519.9,463.4h55.5   V344.9h118.5v-55.5H575.4V170.9h-55.5v118.5H401.4v55.5h118.5V463.4z" id="XMLID_4_"/><rect height="140" id="XMLID_3_" width="40" x="871.9" y="753.1"/><rect height="465.9" id="XMLID_2_" width="40" x="112.1" y="427.2"/></g></svg>