<svg width="18" height="18" viewBox="0 0 18 18" fill="none" xmlns="http://www.w3.org/2000/svg">
<path d="M15.75 4.5H15V3.75C15 3.55109 14.921 3.36032 14.7803 3.21967C14.6397 3.07902 14.4489 3 14.25 3C14.0511 3 13.8603 3.07902 13.7197 3.21967C13.579 3.36032 13.5 3.55109 13.5 3.75V4.5H12.75C12.5511 4.5 12.3603 4.57902 12.2197 4.71967C12.079 4.86032 12 5.05109 12 5.25C12 5.44891 12.079 5.63968 12.2197 5.78033C12.3603 5.92098 12.5511 6 12.75 6H13.5V6.75C13.5 6.94891 13.579 7.13968 13.7197 7.28033C13.8603 7.42098 14.0511 7.5 14.25 7.5C14.4489 7.5 14.6397 7.42098 14.7803 7.28033C14.921 7.13968 15 6.94891 15 6.75V6H15.75C15.9489 6 16.1397 5.92098 16.2803 5.78033C16.421 5.63968 16.5 5.44891 16.5 5.25C16.5 5.05109 16.421 4.86032 16.2803 4.71967C16.1397 4.57902 15.9489 4.5 15.75 4.5ZM7.5 8.25C8.09334 8.25 8.67336 8.07405 9.16671 7.74441C9.66006 7.41477 10.0446 6.94623 10.2716 6.39805C10.4987 5.84987 10.5581 5.24667 10.4424 4.66473C10.3266 4.08279 10.0409 3.54824 9.62132 3.12868C9.20176 2.70912 8.66721 2.4234 8.08527 2.30765C7.50333 2.19189 6.90013 2.2513 6.35195 2.47836C5.80377 2.70543 5.33524 3.08994 5.00559 3.58329C4.67595 4.07664 4.5 4.65666 4.5 5.25C4.5 6.04565 4.81607 6.80871 5.37868 7.37132C5.94129 7.93393 6.70435 8.25 7.5 8.25ZM12 15.75C12.1989 15.75 12.3897 15.671 12.5303 15.5303C12.671 15.3897 12.75 15.1989 12.75 15C12.75 13.6076 12.1969 12.2723 11.2123 11.2877C10.2277 10.3031 8.89239 9.75 7.5 9.75C6.10761 9.75 4.77226 10.3031 3.78769 11.2877C2.80312 12.2723 2.25 13.6076 2.25 15C2.25 15.1989 2.32902 15.3897 2.46967 15.5303C2.61032 15.671 2.80109 15.75 3 15.75" fill="#8A8A8A"/>
</svg>
