<?xml version="1.0" ?><!DOCTYPE svg  PUBLIC '-//W3C//DTD SVG 1.1//EN'  'http://www.w3.org/Graphics/SVG/1.1/DTD/svg11.dtd'><svg enable-background="new 0 0 64 64" height="64px" version="1.1" viewBox="0 0 64 64" width="64px" xml:space="preserve" xmlns="http://www.w3.org/2000/svg" xmlns:xlink="http://www.w3.org/1999/xlink"><g id="_x35_0_China"/><g id="_x34_9_fever"/><g id="_x34_8_Thermo_Head"/><g id="_x34_7_Call_Hospital"/><g id="_x34_6_Hospital_Bed"/><g id="_x34_5_Eye"/><g id="_x34_4_Ambulance"/><g id="_x34_3_disinfectant"/><g id="_x34_2_Antibody"/><g id="_x34_1_Death"/><g id="_x34_0_Isolation_Room"/><g id="_x33_9_Soap"/><g id="_x33_8_Corona_Virus"/><g id="_x33_7_Medic"/><g id="_x33_6_Vitamin"/><g id="_x33_5_Diare"/><g id="_x33_4_Hand_sanitizer"/><g id="_x33_3_Soap"/><g id="_x33_2_Wash_Hand"/><g id="_x33_1_Wash_with_Soap"/><g id="_x33_0_Stethoscope"/><g id="_x32_9_Lockdown"/><g id="_x32_8_Bat"/><g id="_x32_7_Pills"/><g id="_x32_6_Airborne"/><g id="_x32_5_Lockdown"/><g id="_x32_4_Siocial_Distance"/><g id="_x32_3_Thermometer"/><g id="_x32_2_Hand_Soap"/><g id="_x32_1_Alcohol"/><g id="_x32_0_Vaccine"/><g id="_x31_9_Clinic"/><g id="_x31_8_Check_Up"/><g id="_x31_7_Pneumonia"/><g id="_x31_6_Masker"/><g id="_x31_5_Use_Masker"/><g id="_x31_4_No_Travel"/><g id="_x31_3_No_crowd"/><g id="_x31_2_Work_from_Home"/><g id="_x31_1_Quarantine"/><g id="_x31_0_Face_Contact"/><g id="_x30_9_Headache"/><g id="_x30_8_Puke"/><g id="_x30_7_Sore_Throath"/><g id="_x30_6_Breathe"/><g id="_x30_5_Cough"/><g id="_x30_4_Blood"/><g id="_x30_3_Microscope"/><g id="_x30_2_Pandemic"/><g id="_x30_1_Corona_Virus"><path d="M63.712,27.733c-0.147-1.094-1.152-1.861-2.249-1.715c-1.095,0.147-1.862,1.154-1.715,2.249   c0.077,0.576,0.133,1.155,0.175,1.733H55.91c-0.424-5.117-2.458-9.781-5.596-13.486l2.827-2.827c0.24,0.276,0.48,0.551,0.708,0.835   c0.395,0.493,0.976,0.75,1.562,0.75c0.438,0,0.88-0.144,1.249-0.439c0.862-0.69,1.001-1.949,0.31-2.811   c-1.474-1.839-3.153-3.519-4.992-4.992c-0.862-0.692-2.121-0.553-2.811,0.31c-0.691,0.862-0.552,2.121,0.31,2.811   c0.285,0.228,0.56,0.469,0.835,0.708l-2.827,2.827C43.781,10.548,39.117,8.514,34,8.09V4.077c0.578,0.042,1.156,0.097,1.733,0.175   c0.091,0.012,0.181,0.018,0.27,0.018c0.986,0,1.844-0.729,1.979-1.733c0.147-1.095-0.62-2.102-1.715-2.249   c-1.414-0.191-2.833-0.286-4.252-0.287C32.01,0.001,32.005,0,32,0s-0.01,0.001-0.015,0.001c-1.419,0-2.839,0.096-4.252,0.287   c-1.095,0.147-1.862,1.154-1.715,2.249c0.148,1.095,1.154,1.865,2.249,1.715C28.844,4.174,29.422,4.119,30,4.077V8.09   c-5.117,0.424-9.781,2.458-13.486,5.596l-2.827-2.827c0.276-0.24,0.551-0.48,0.835-0.708c0.862-0.69,1.001-1.949,0.31-2.811   c-0.69-0.862-1.95-1.002-2.811-0.31c-1.839,1.474-3.519,3.153-4.992,4.992c-0.691,0.862-0.552,2.121,0.31,2.811   c0.369,0.296,0.811,0.439,1.249,0.439c0.586,0,1.167-0.256,1.562-0.75c0.228-0.285,0.469-0.56,0.708-0.835l2.827,2.827   C10.548,20.219,8.514,24.883,8.09,30H4.077c0.042-0.578,0.098-1.157,0.175-1.733c0.147-1.095-0.62-2.102-1.715-2.249   c-1.1-0.147-2.101,0.621-2.249,1.715C0.097,29.151,0,30.587,0,32s0.097,2.849,0.288,4.267C0.423,37.271,1.282,38,2.268,38   c0.089,0,0.179-0.006,0.27-0.018c1.095-0.147,1.862-1.154,1.715-2.249C4.175,35.157,4.119,34.578,4.077,34H8.09   c0.424,5.117,2.458,9.781,5.596,13.486l-2.827,2.827c-0.24-0.276-0.48-0.551-0.708-0.835c-0.69-0.862-1.949-1.001-2.811-0.31   c-0.862,0.69-1.001,1.949-0.31,2.811c1.474,1.839,3.153,3.519,4.992,4.992c0.369,0.296,0.811,0.439,1.249,0.439   c0.586,0,1.167-0.256,1.562-0.75c0.691-0.862,0.552-2.121-0.31-2.811c-0.285-0.228-0.56-0.469-0.835-0.708l2.827-2.827   c3.705,3.138,8.37,5.171,13.486,5.596v4.013c-0.578-0.042-1.156-0.097-1.733-0.175c-1.096-0.148-2.102,0.621-2.249,1.715   c-0.147,1.095,0.62,2.102,1.715,2.249C29.151,63.903,30.587,64,32,64s2.849-0.097,4.267-0.288c1.095-0.147,1.862-1.154,1.715-2.249   c-0.147-1.094-1.15-1.862-2.249-1.715c-0.577,0.078-1.155,0.133-1.733,0.175V55.91c5.117-0.424,9.781-2.458,13.486-5.596   l2.827,2.827c-0.276,0.24-0.551,0.48-0.835,0.708c-0.862,0.69-1.001,1.949-0.31,2.811c0.395,0.493,0.976,0.75,1.562,0.75   c0.438,0,0.88-0.144,1.249-0.439c1.839-1.474,3.519-3.153,4.992-4.992c0.691-0.862,0.552-2.121-0.31-2.811   c-0.862-0.692-2.122-0.552-2.811,0.31c-0.228,0.285-0.469,0.56-0.708,0.835l-2.827-2.827c3.138-3.705,5.171-8.37,5.596-13.486   h4.013c-0.042,0.578-0.098,1.157-0.175,1.733c-0.147,1.095,0.62,2.102,1.715,2.249C61.554,37.994,61.644,38,61.732,38   c0.986,0,1.844-0.729,1.979-1.733C63.903,34.849,64,33.413,64,32S63.903,29.151,63.712,27.733z M47.477,44.648l-2.853-2.853   c0.444-0.571,0.853-1.172,1.217-1.801c0.554-0.956,0.228-2.179-0.728-2.733c-0.955-0.552-2.18-0.228-2.733,0.728   c-1.055,1.819-2.573,3.337-4.391,4.391c-0.956,0.554-1.281,1.778-0.728,2.733c0.371,0.64,1.042,0.998,1.732,0.998   c0.34,0,0.685-0.087,1.001-0.27c0.629-0.364,1.229-0.773,1.801-1.217l2.853,2.853C41.199,50.301,36.795,52,32,52   s-9.199-1.699-12.648-4.523l2.853-2.853c0.572,0.444,1.173,0.853,1.802,1.218c0.316,0.183,0.661,0.27,1.001,0.27   c0.69,0,1.361-0.357,1.732-0.998c0.554-0.956,0.228-2.179-0.728-2.733c-1.819-1.054-3.338-2.573-4.392-4.392   c-0.554-0.956-1.778-1.28-2.733-0.728c-0.956,0.554-1.281,1.778-0.728,2.733c0.365,0.629,0.773,1.229,1.217,1.801l-2.853,2.853   C13.699,41.199,12,36.795,12,32s1.699-9.199,4.523-12.648l2.853,2.853c-0.444,0.571-0.852,1.172-1.217,1.801   c-0.554,0.956-0.228,2.179,0.728,2.733c0.315,0.183,0.661,0.27,1.001,0.27c0.69,0,1.361-0.357,1.732-0.998   c1.054-1.819,2.573-3.337,4.391-4.391c0.956-0.554,1.281-1.777,0.728-2.733c-0.554-0.956-1.777-1.282-2.733-0.728   c-0.629,0.365-1.229,0.772-1.801,1.217l-2.853-2.853C22.801,13.699,27.205,12,32,12s9.199,1.699,12.648,4.523l-2.853,2.853   c-0.571-0.443-1.171-0.852-1.799-1.216c-0.957-0.555-2.18-0.229-2.733,0.727c-0.554,0.956-0.229,2.18,0.727,2.733   c1.819,1.055,3.337,2.573,4.391,4.391c0.371,0.64,1.042,0.998,1.732,0.998c0.34,0,0.685-0.087,1.001-0.27   c0.956-0.554,1.281-1.778,0.728-2.733c-0.365-0.629-0.773-1.23-1.217-1.801l2.853-2.853C50.301,22.801,52,27.205,52,32   S50.301,41.199,47.477,44.648z"/></g></svg>