<svg width="20" height="20" viewBox="0 0 20 20" fill="none" xmlns="http://www.w3.org/2000/svg">
<path d="M9.9987 17.5C13.6745 17.5 16.6654 14.5091 16.6654 10.8333C16.6654 8.04164 14.9387 5.64914 12.4987 4.65747V6.50997C13.2578 6.94824 13.8883 7.57835 14.3271 8.33716C14.7659 9.09596 14.9975 9.95677 14.9987 10.8333C14.9987 13.5908 12.7562 15.8333 9.9987 15.8333C7.2412 15.8333 4.9987 13.5908 4.9987 10.8333C4.9998 9.95676 5.23137 9.09591 5.67016 8.33709C6.10895 7.57828 6.73954 6.94817 7.4987 6.50997V4.65747C5.0587 5.64914 3.33203 8.04164 3.33203 10.8333C3.33203 14.5091 6.32286 17.5 9.9987 17.5Z" fill="#849FDE"/>
<path d="M9.16797 1.66675H10.8346V10.0001H9.16797V1.66675Z" fill="#849FDE"/>
</svg>
