<svg width="20" height="20" viewBox="0 0 20 20" fill="none" xmlns="http://www.w3.org/2000/svg">
<circle cx="10" cy="10" r="8" fill="white"/>
<path d="M10 0C7.34784 0 4.8043 1.05357 2.92893 2.92893C1.05357 4.8043 0 7.34784 0 10C0 12.6522 1.05357 15.1957 2.92893 17.0711C4.8043 18.9464 7.34784 20 10 20C12.6522 20 15.1957 18.9464 17.0711 17.0711C18.9464 15.1957 20 12.6522 20 10C20 7.34784 18.9464 4.8043 17.0711 2.92893C15.1957 1.05357 12.6522 0 10 0V0ZM15.7012 13.644L13.6429 15.7024L10 12.0583L6.35595 15.7012L4.29762 13.6429L7.94286 10L4.29881 6.35595L6.35714 4.29881L10 7.94167L13.644 4.29762L15.7024 6.35595L12.0571 10L15.7012 13.644Z" fill="#FF0005"/>
</svg>
