<svg width="28" height="28" viewBox="0 0 28 28" fill="none" xmlns="http://www.w3.org/2000/svg">
<rect width="28" height="28" fill="#2C49AC"/>
<path d="M20.4375 19.0446L17.4904 16.0976C18.2 15.153 18.583 14.0033 18.5817 12.822C18.5817 9.80446 16.1267 7.34949 13.1092 7.34949C10.0917 7.34949 7.63672 9.80446 7.63672 12.822C7.63672 15.8395 10.0917 18.2944 13.1092 18.2944C14.2905 18.2957 15.4402 17.9127 16.3848 17.2032L19.3318 20.1502C19.481 20.2836 19.6756 20.3548 19.8756 20.3492C20.0756 20.3436 20.2659 20.2616 20.4074 20.1201C20.5489 19.9787 20.6308 19.7884 20.6364 19.5884C20.642 19.3883 20.5708 19.1938 20.4375 19.0446ZM9.20028 12.822C9.20028 12.0489 9.42954 11.2931 9.85906 10.6503C10.2886 10.0075 10.8991 9.50646 11.6133 9.2106C12.3276 8.91475 13.1135 8.83734 13.8718 8.98816C14.63 9.13899 15.3265 9.51128 15.8732 10.0579C16.4199 10.6046 16.7922 11.3011 16.943 12.0594C17.0938 12.8176 17.0164 13.6036 16.7206 14.3178C16.4247 15.0321 15.9237 15.6426 15.2809 16.0721C14.6381 16.5016 13.8823 16.7309 13.1092 16.7309C12.0729 16.7296 11.0793 16.3174 10.3466 15.5846C9.61376 14.8518 9.20153 13.8583 9.20028 12.822Z" fill="#ECECEC"/>
</svg>
