<svg width="18" height="18" viewBox="0 0 18 18" fill="none" xmlns="http://www.w3.org/2000/svg">
<path d="M7.43157 2.79104C7.76771 1.06803 10.2329 1.06803 10.569 2.79104C10.7736 3.83951 11.9293 4.39608 12.8765 3.90228C14.4332 3.09081 15.9702 5.01816 14.8327 6.35524C14.1405 7.16887 14.426 8.41947 15.4026 8.85219C17.0076 9.56331 16.4591 11.9667 14.7045 11.911C13.6368 11.8771 12.837 12.88 13.1076 13.9134C13.5524 15.6116 11.3313 16.6812 10.2809 15.2747C9.64167 14.4188 8.35891 14.4188 7.71971 15.2747C6.66927 16.6812 4.44823 15.6116 4.89297 13.9134C5.16359 12.88 4.36381 11.8771 3.2961 11.911C1.5415 11.9667 0.992947 9.56331 2.59796 8.85219C3.57463 8.41947 3.86007 7.16887 3.16787 6.35524C2.03035 5.01816 3.56735 3.09081 5.12404 3.90228C6.0713 4.39608 7.22702 3.83951 7.43157 2.79104Z" stroke="#849FDE" stroke-width="1.5"/>
<path d="M11.2503 8.99997C11.2503 10.2426 10.2429 11.25 9.00029 11.25C7.75765 11.25 6.75029 10.2426 6.75029 8.99997C6.75029 7.75733 7.75765 6.74997 9.00029 6.74997C10.2429 6.74997 11.2503 7.75733 11.2503 8.99997Z" stroke="#849FDE" stroke-width="1.5"/>
</svg>
